<?xml version="1.0" encoding="utf-8"?>
<!-- Generator: Adobe Illustrator 21.0.0, SVG Export Plug-In . SVG Version: 6.00 Build 0)  -->
<svg version="1.1" id="Facebook" xmlns="http://www.w3.org/2000/svg" xmlns:xlink="http://www.w3.org/1999/xlink" x="0px" y="0px"
	 viewBox="0 0 128 128" enable-background="new 0 0 128 128" xml:space="preserve">
<g>
	<rect id="facebook-back" fill="#3A5A99" width="128" height="128"/>
	<path id="facebook-facebook" fill="#FFFFFF" d="M95.9,28.2H32.1c-2.2,0-4,1.8-4,4v63.8c0,2.2,1.8,4,4,4h34.3V72.1h-9.3V61.3h9.3v-8
		C66.4,44,72.1,39,80.4,39c4,0,7.4,0.3,8.3,0.4v9.7l-5.7,0c-4.5,0-5.4,2.1-5.4,5.3v6.9h10.7l-1.4,10.8h-9.3v27.8h18.3
		c2.2,0,4-1.8,4-4V32.1C99.8,29.9,98.1,28.2,95.9,28.2z"/>
</g>
</svg>
