<?xml version="1.0" encoding="utf-8"?>
<!-- Generator: Adobe Illustrator 21.0.2, SVG Export Plug-In . SVG Version: 6.00 Build 0)  -->
<svg version="1.1" id="Ebene_1" xmlns="http://www.w3.org/2000/svg" xmlns:xlink="http://www.w3.org/1999/xlink" x="0px" y="0px"
	 viewBox="0 0 40 40" enable-background="new 0 0 40 40" xml:space="preserve">
<path fill-rule="evenodd" clip-rule="evenodd" fill="#FFFFFF" d="M25.8,12.3c-0.2-0.1-0.5,0-0.7,0.1c-0.5,0.4-1,0.8-2.1,1
	c-1.2,0.2-1.8,0-2.5-0.2c-0.8-0.2-1.7-0.5-3.2-0.2c-1.1,0.2-1.7,0.6-2.3,0.9c-0.2-0.2-0.5-0.4-0.8-0.3c-0.4,0.1-0.7,0.5-0.6,0.9
	l2.7,13.9c0.1,0.4,0.5,0.7,0.9,0.6c0.4-0.1,0.7-0.5,0.6-0.9l-1.2-5.9c0.5-0.4,1.1-0.8,2.2-1c1.2-0.2,1.8,0,2.5,0.2
	c0.8,0.2,1.7,0.5,3.2,0.2c1.4-0.3,2.1-0.8,2.7-1.3c0.2-0.2,0.3-0.4,0.3-0.7l-1.3-6.7C26.3,12.6,26.1,12.4,25.8,12.3z"/>
</svg>
