<?xml version="1.0" encoding="utf-8"?>
<!-- Generator: Adobe Illustrator 21.0.2, SVG Export Plug-In . SVG Version: 6.00 Build 0)  -->
<svg version="1.1" id="Ebene_1" xmlns="http://www.w3.org/2000/svg" xmlns:xlink="http://www.w3.org/1999/xlink" x="0px" y="0px"
	 viewBox="0 0 40 40" enable-background="new 0 0 40 40" xml:space="preserve">
<path fill="#FFFFFF" d="M28.2,27.8c-1.5-0.8-3.1-1.4-4.6-2c-0.1,0-0.3-0.1-0.3-0.2c-0.1-0.3-0.2-0.6-0.3-0.9
	c-0.1-0.2-0.1-0.4-0.3-0.5c-0.1,0-0.1-0.1-0.1-0.2c0-0.7-0.2-1.4,0.4-2c0,0,0,0,0-0.1c0.3-0.6,0.3-1.3,0.7-1.9c0,0,0,0,0,0
	c0-0.4,0.1-0.9,0.1-1.3c0-0.1,0-0.1-0.1-0.2c-0.2-0.1-0.2-0.2-0.2-0.4c0-0.8,0-1.7,0-2.5c0-0.5-0.1-0.9-0.5-1.3
	c-0.4-0.4-0.9-0.7-1.3-1.1c-0.2-0.2-0.2-0.3,0-0.5c0.1-0.1,0.2-0.1,0.3-0.2c0,0,0-0.1-0.1-0.1c-0.1,0-0.3,0-0.4,0
	c-0.5,0.1-1,0.1-1.4,0.3c-0.9,0.2-1.8,0.5-2.5,1.1c-0.5,0.4-0.9,0.9-0.9,1.6c0,0.4,0,0.7,0,1.1c0,0.6,0,1.2,0,1.7
	c0,0.1-0.1,0.3-0.1,0.3c-0.2,0.1-0.2,0.2-0.2,0.4c0,0.1,0,0.3,0,0.4c0.1,0.4,0.2,0.7,0.3,1.1c0.1,0.3,0.2,0.5,0.3,0.8
	c0.1,0.5,0.3,1,0.6,1.4c0.1,0.1,0.1,0.2,0.1,0.3c0,0.4-0.1,0.8-0.1,1.2c0,0.1-0.1,0.2-0.2,0.2c-0.3,0.1-0.3,0.3-0.4,0.5
	c-0.1,0.3-0.2,0.6-0.3,0.8c0,0.1-0.1,0.2-0.2,0.2c-0.5,0.2-1,0.4-1.5,0.6c-0.5,0.2-1.1,0.4-1.6,0.7c-0.5,0.3-1,0.5-1.6,0.8
	c-0.3,0.2-0.6,0.3-0.8,0.6v0.9h18v-0.9C28.8,28.1,28.5,27.9,28.2,27.8L28.2,27.8z M28.2,27.8"/>
</svg>
