<?xml version="1.0" encoding="utf-8"?>
<!-- Generator: Adobe Illustrator 21.0.2, SVG Export Plug-In . SVG Version: 6.00 Build 0)  -->
<svg version="1.1" id="Ebene_1" xmlns="http://www.w3.org/2000/svg" xmlns:xlink="http://www.w3.org/1999/xlink" x="0px" y="0px"
	 viewBox="0 0 40 40" enable-background="new 0 0 40 40" xml:space="preserve">
<g>
	<path fill="#FFFFFF" d="M26.3,12.7h-2.5V12c0-0.2-0.2-0.4-0.4-0.4h-7.6c-0.2,0-0.4,0.2-0.4,0.4v0.7h-2.5c-0.2,0-0.4,0.2-0.4,0.4
		v0.2c0,3.1,1.6,5.6,3.6,5.7c0.5,0.8,1.3,1.4,2.2,1.6v4.1h-1.4c-0.2,0-0.4,0.2-0.4,0.4v0.6h-0.8c-0.2,0-0.4,0.2-0.4,0.4v2.8
		c0,0.2,0.2,0.4,0.4,0.4h7.6c0.2,0,0.4-0.2,0.4-0.4v-2.8c0-0.2-0.2-0.4-0.4-0.4h-0.8v-0.6c0-0.2-0.2-0.4-0.4-0.4h-1.4v-4.1
		c0.9-0.3,1.7-0.9,2.2-1.6c2-0.1,3.6-2.6,3.6-5.7v-0.2C26.7,12.9,26.5,12.7,26.3,12.7L26.3,12.7z M15.6,13.9v2.8c0,0.3,0,0.6,0.1,1
		c-1-0.5-1.7-2.1-1.8-3.8H15.6z M23.7,17.7c0.1-0.3,0.1-0.6,0.1-1v-2.8h1.7C25.4,15.6,24.7,17.1,23.7,17.7L23.7,17.7z M23.7,17.7"/>
</g>
</svg>
