<?xml version="1.0" encoding="utf-8"?>
<!-- Generator: Adobe Illustrator 21.0.0, SVG Export Plug-In . SVG Version: 6.00 Build 0)  -->
<svg version="1.1" xmlns="http://www.w3.org/2000/svg" xmlns:xlink="http://www.w3.org/1999/xlink" x="0px" y="0px"
	 viewBox="0 0 128 128" enable-background="new 0 0 128 128" xml:space="preserve">
<g id="Twitter" display="none">
	<g display="inline">
		<rect id="twitter-back" fill="#55ACEE" width="128" height="128"/>
		<path id="twitter-twitter" fill="#FFFFFF" d="M99.8,41.8c-2.6,1.2-5.5,2-8.4,2.3c3-1.8,5.4-4.7,6.5-8.1c-2.8,1.7-6,2.9-9.3,3.6
			c-2.7-2.9-6.5-4.6-10.7-4.6c-8.1,0-14.7,6.6-14.7,14.7c0,1.2,0.1,2.3,0.4,3.4c-12.2-0.6-23.1-6.5-30.3-15.4c-1.3,2.2-2,4.7-2,7.4
			c0,5.1,2.6,9.6,6.5,12.2c-2.4-0.1-4.7-0.7-6.7-1.8c0,0.1,0,0.1,0,0.2c0,7.1,5.1,13.1,11.8,14.4c-1.2,0.3-2.5,0.5-3.9,0.5
			c-0.9,0-1.9-0.1-2.8-0.3c1.9,5.8,7.3,10.1,13.7,10.2c-5,3.9-11.4,6.3-18.3,6.3c-1.2,0-2.4-0.1-3.5-0.2c6.5,4.2,14.2,6.6,22.5,6.6
			c27,0,41.8-22.4,41.8-41.8c0-0.6,0-1.3,0-1.9C95.4,47.3,97.9,44.7,99.8,41.8z"/>
	</g>
</g>
<g id="Ebene_2">
	<rect x="-1.3" width="131.5" height="129.8"/>
	<g>
		<path fill="#FFFFFF" d="M102.8,83.4c0,1.9-0.5,3.4-1.5,4.9L76.6,60.6l24.3-21.4c1,1.5,1.5,3.4,1.5,5.3v38.8H102.8z M64,65.9
			l34-29.6c-1.5-1-2.9-1.5-4.9-1.5H34.9c-1.5,0-3.4,0.5-4.9,1.5L64,65.9z M73.2,64l-7.8,6.8c-0.5,0.5-1,0.5-1.5,0.5
			c-0.5,0-1,0-1.5-0.5L54.8,64L30,91.7c1.5,1,3.4,1.5,5.3,1.5h58.3c1.9,0,3.4-0.5,5.3-1.5L73.2,64z M26.6,39.7
			c-1,1.5-1.5,3.4-1.5,5.3v38.8c0,1.9,0.5,3.4,1.5,4.9l24.8-27.7L26.6,39.7z"/>
	</g>
</g>
</svg>
