<?xml version="1.0" encoding="utf-8"?>
<!-- Generator: Adobe Illustrator 21.1.0, SVG Export Plug-In . SVG Version: 6.00 Build 0)  -->
<svg version="1.1" id="Ebene_1" xmlns="http://www.w3.org/2000/svg" xmlns:xlink="http://www.w3.org/1999/xlink" x="0px" y="0px"
	 viewBox="0 0 218 226" enable-background="new 0 0 218 226" xml:space="preserve">
<g>
	<g>
		<path fill-rule="evenodd" clip-rule="evenodd" fill="#C9C9C9" d="M203.3,184.7l-43.5-43.5c-0.2-0.2-0.5-0.4-0.7-0.6
			c8.6-13,13.6-28.5,13.6-45.2c0-45.5-36.9-82.3-82.3-82.3S8,49.9,8,95.3c0,45.5,36.9,82.3,82.3,82.3c16.7,0,32.3-5,45.2-13.6
			c0.2,0.2,0.4,0.5,0.6,0.7l43.5,43.5c6.5,6.5,17.1,6.5,23.7,0C209.9,201.8,209.9,191.2,203.3,184.7L203.3,184.7z M90.3,149.1
			c-29.7,0-53.8-24.1-53.8-53.8c0-29.7,24.1-53.8,53.8-53.8s53.8,24.1,53.8,53.8C144.1,125,120,149.1,90.3,149.1L90.3,149.1z
			 M90.3,149.1"/>
	</g>
</g>
</svg>
