<svg version="1.1" id="Ebene_1" xmlns="http://www.w3.org/2000/svg" x="0" y="0" viewBox="0 0 745.3 299.6" xml:space="preserve"><style>.st0{fill:#fff}.st1{fill:#173252}.st3{fill:#b01f16}</style><path class="st0" d="M0 0h745.3v297.2H0z"/><path class="st1" d="M736.8 8.5v280.2H8.5V8.5h728.3z"/><path class="st0" d="M728.6 150H16.7V16.4h711.9V150z"/><path d="M120.6 152.3z" fill="#b5101f"/><path class="st0" d="M419.5 202c0-7-6.3-12-13.2-14-4.7-1.3-27-4.4-48.1 0-6 1.2-25.3 8.1-25 15.8.2 4.4 7.6 4.9 10.6 4.9 15.9 0 20.2-9.4 34-9.4 2.2 0 11.2-.6 11.2 6.1 0 7.8-13.7 8.9-15.3 9.1-7.2 1-34.9 5.1-44.7 10.4-15 8-19.3 16.7-19.3 21.7 0 15.5 20.9 16.7 29.5 16.7 12.9 0 18.8-4.5 29.5-4.5 1 0 13.4 2.7 17.3 2.9 3 .1 5.7-.6 8.2-1.4 7.1-2.3 7.5-9.5 9.6-14.2 4.6-10.5 8.9-21.1 12.8-31.8 1.3-4.1 2.9-8.2 2.9-12.3zm-59.6 44.9c-2.7.6-4 .9-7.2 1-3.5.1-11-1.4-11-6.3 0-10 26.2-13.7 29.9-13.7 4.6-.2 7.5 1.1 7.5 4.1.1 8.5-18.3 14.7-19.2 14.9zM493.1 194.5c-.6-4.5-4.9-6.4-8.7-6.3-2.7.1-7.7 2.2-11.8 2.1-4.4 0-6.3-.9-12.2-1.9-7.2-1.3-13.7-1.1-18 0-6.7 1.6-11.8 8.3-13.2 13.5-2.4 8.7-6.9 17.5-10.2 26.1-3.6 9.3-9.8 25.6-10.1 28.9-.3 2.8 3 6.5 6.3 6.5 0 0 12.8.1 15.3-.1 10.3-.9 14.3-14.9 16.6-20.8 1.9-4.8 3.9-9.9 5.9-14.7 1.3-3.2 3-7.9 6.6-11.2 7.1-6.6 15.5-6.6 23.2-8.6 6.9-1.9 11-7.9 10.3-13.5zM564.3 192.6c-5.7 2.1-31.9 20.2-36.3 14.2-3.4-5.8 13.1-32.2 10.6-37.4-3.2-6.8-18.2-3.7-21.6-2-6.2 3-8.3 10.2-10.6 16-4.4 11.1-27 69.1-28.4 73.4-2.3 7.4 22.5 12.3 30.8-6.9 2.6-6 10.1-13.3 16.9-13.3 13.1 0 11 26.2 29 26.6 2 0 9.7.2 15.1-2.3 9.6-4.6-11.5-31.5-11.5-39.8 0-10.1 35.8-23.5 32.8-27.9-3.8-5.5-19.7-3.1-26.8-.6zM311.5 191.8c-18.4-11.5-44.1 2.1-53.7 2.1-13.1 0-12.7-5.3-26.7-6.2-28.4-1.7-37.1 5-43.3 5-4.3 0-3.8-3.4-8.8-2.7-5.5.9-6.4 2-7.9 4.1-1.9 2.6-22 57.1-23.3 60.1-4.6 10.8 22.9 12.2 29.1 3.6 16.4-22.6 12.7-47 33.3-51 4.9-.9 9.2-1.1 12.5 3.7l.1.3c3 5.5-2.2 16.4-5.7 24.9-1.7 4.1-6.8 17.6-6.4 22.2.8 8.7 27.5 5.8 31.2-.9 7.9-14.7 9.5-39.9 18.2-46.7 10.6-8.2 20.3-1.9 21.1 1.8 1.7 7.5-5.6 21.7-9.5 30-5.5 11.7-3 21 11.1 21.1 4.7 0 11.1-1.8 13.9-5.8 2.3-3.4 6-13 11.3-27.4 5.8-15.6 12.1-32.9 3.5-38.2zM656.7 186.9c-3.2-1.3-6.3-2.6-5.6-5.9 1.2-6 1.8-10 .3-12.5s-5-3.4-11.9-3.2c-11 .3-14.9 3.3-17.3 7-2.4 3.8-3.4 8.3-8.4 12-3.1 2.2-6.6 3.2-9.5 4.6-2.9 1.4-6.1 3.6-6.1 6.7 0 3.4 2.1 4.5 4.2 5.7 2.1 1.2 4.2 2.2 4.4 4.5.1 6.8-3.2 14.7-6.6 22.5-3.4 7.8-6.9 15.4-7 21.7-.6 15.2 19.2 13.1 23.9 13.2 6.7-.1 23.8 1 24.1-12.3 0-3.7-3.2-4.9-6.3-6.3-3.1-1.4-6.1-2.8-5.8-7 .1-1.4 2.2-7.6 4.5-13.9 2.3-6.3 4.8-12.6 5.7-14.1 2.6-4.3 8.6-6.4 13.9-8.4 5.3-2 10.1-4.1 10.1-8.4.1-3.2-3.3-4.6-6.6-5.9zM87.4 290.6l33.3-81.9 17-41.8 5.9 2.4-5.8 14.4-.4 1.1-.1.4c-.5 2.1-.5 4.3.1 6.4 1.5 5.5 6.6 9.4 12.4 9.4h.5c.8 0 2-.1 3.3-.6 4.4-1.5 6.7-3.8 8.5-8.4l10.4-25.6c.9-2.2 1.6-4.7.7-8-1-3.6-3.2-6.2-6.2-7.5l-.2-.1c-.2-.1-.5-.2-.8-.3l-33.7-13.7c5.5-4.4 8.2-11.8 6.2-19-2.2-7.8-9.3-13.2-17.4-13.2h-.7c-1.4.1-2.8.3-4.2.7-4.6 1.3-8.5 4.3-10.9 8.5-2.4 4.2-3 9.1-1.7 13.7s4.3 8.4 8.3 10.7c-4.2 1.8-12 5.2-26 11.3-15.8 6.9-32.9 14.3-38.6 16.8-5.9 2.5-9.1 9.1-7.4 15.3 1.5 5.5 6.6 9.4 12.4 9.4h.5c1 0 2-.2 3-.5.4-.1.9-.3 1.4-.5h.1l28-12.7-3.8 9.4L64.4 229l-.1.2c-.9 2.5-1 5.3-.3 7.8 1.6 5.6 6.5 9.4 12.3 9.4h.5c.3 0 .6 0 .9-.1l-14.2 34.9s-5.7 11.9 6 16.9c13.6 5.9 17.9-7.5 17.9-7.5z"/><path class="st0" d="M87.4 290.6l33.3-81.9 17-41.8 5.9 2.4-5.8 14.4-.4 1.1-.1.4c-.5 2.1-.5 4.3.1 6.4 1.5 5.5 6.6 9.4 12.4 9.4h.5c.8 0 2-.1 3.3-.6 4.4-1.5 6.7-3.8 8.5-8.4l10.4-25.6c.9-2.2 1.6-4.7.7-8-1-3.6-3.2-6.2-6.2-7.5l-.2-.1c-.2-.1-.5-.2-.8-.3l-33.7-13.7c5.5-4.4 8.2-11.8 6.2-19-2.2-7.8-9.3-13.2-17.4-13.2h-.7c-1.4.1-2.8.3-4.2.7-4.6 1.3-8.5 4.3-10.9 8.5-2.4 4.2-3 9.1-1.7 13.7s4.3 8.4 8.3 10.7c-4.2 1.8-12 5.2-26 11.3-15.8 6.9-32.9 14.3-38.6 16.8-5.9 2.5-9.1 9.1-7.4 15.3 1.5 5.5 6.6 9.4 12.4 9.4h.5c1 0 2-.2 3-.5.4-.1.9-.3 1.4-.5h.1l28-12.7-3.8 9.4L64.4 229l-.1.2c-.9 2.5-1 5.3-.3 7.8 1.6 5.6 6.5 9.4 12.3 9.4h.5c.3 0 .6 0 .9-.1l-14.2 34.9s-5.7 11.9 6 16.9c13.6 5.9 17.9-7.5 17.9-7.5z"/><g><path class="st0" d="M121.5 299.1c-9.2.4-17.4-5.6-19.9-14.5-2.9-10.5 3.2-21.5 13.8-24.5 1.5-.4 3-.7 4.6-.7 9.2-.4 17.4 5.6 19.9 14.5 1.4 5.1.8 10.5-1.8 15.1s-6.8 8-12 9.4c-1.5.4-3.1.6-4.6.7z"/><path class="st3" d="M121.3 293.4c-6.6.3-12.4-4-14.2-10.3-2.1-7.5 2.3-15.4 9.8-17.5 1.1-.3 2.2-.5 3.3-.5 6.6-.3 12.4 4 14.2 10.3 1 3.6.6 7.5-1.3 10.8-1.9 3.3-4.9 5.7-8.5 6.7-1.1.2-2.2.4-3.3.5z"/><g><path class="st3" d="M86.9 188.8l9-22.3-40.8 18.4c-.3.1-.6.2-.8.3-.5.1-1.1.2-1.6.3-3.3.1-6.3-2-7.2-5.2-1-3.5.8-7.2 4.1-8.6 11.6-5 69.5-30.3 69.8-30.4 1.3-.5 2.7-.8 4-.9 1.8-.1 3.1.2 5 1l35.6 14.4c.2.1.5.2.8.4 1.5.6 2.4 2.1 2.8 3.7.4 1.5.2 2.5-.5 4.3l-10.4 25.7c-1.2 3.1-2.2 4.2-5 5.2-.5.2-1.1.2-1.7.3-3.3.1-6.3-2-7.2-5.2-.3-1.2-.4-2.4-.1-3.6l.3-.8 7.9-19.5-16.4-6.7-17 41.8-30.6-12.6zM121.5 135.1c-5.7.2-10.9-3.5-12.4-9-1.8-6.6 2-13.4 8.6-15.3.9-.3 1.9-.4 2.9-.5 5.7-.2 10.9 3.5 12.4 9 1.8 6.6-2 13.4-8.6 15.3-.9.3-1.9.4-2.9.5zM76.5 240.7c-3.3.1-6.3-2-7.2-5.2-.4-1.4-.4-3 .2-4.4l15-36.8 13.1 5.3-14.9 36.7c-.9 2-2.6 3.5-4.7 4.1-.5.1-.9.3-1.5.3zM75.5 293.5c-3.3.1-6.1-1.9-7-5.2-.3-1.3-.4-2.5 0-3.7l.1-.5.3-.8 33.2-81.8 13.1 5.3L82 288.5c-1 2.4-2.5 4-4.9 4.7-.5.1-1.1.2-1.6.3z"/></g></g><g><path class="st1" d="M537 66c0-6-9.4-4.8-9.4-9 0-1 .9-2.2 1.5-2.6 5.3-3.3 19.5-5.3 19.2-14.7-.1-1.6-2.4-6.5-18.3-6.5-16.3 0-27.8 4.8-38.9 20.9-3.3 4.8-9 6.1-12.7 7.7-3.3 1.5-6.9 3.9-6.9 7.3 0 4.5 9.2 5.6 9.2 11.7 0 8.1-16.7 39.2-16.7 47.3 0 6.5 9 6.5 13 6.5 7.7 0 16.7-1.5 20.5-12.8 3-9.1 7.2-17.8 10.7-26.9 1.7-4.3 2.9-9.2 5.5-13.4 1.5-2.3 3.8-4.3 5.9-5.1 1.7-.5 17.4-3.8 17.4-10.4zM445.5 76.8c6.9 2 19.1-3.4 19.1-9.2 0-13.5-67.2-16.9-85.8 7.1-3.2 4.1-17.1 24.1 28.8 28.8 6.6.7 15.4 2.3 15 6.7-.6 7.7-16.3 8.6-21.8 8.6-10.9 0-16.1-6.8-26.2-7.3-7.5-.3-15.8 6.2-15 10.4 3.7 17.9 91.5 20.7 97.5-17.5 3.4-21.5-47.5-14.4-47.9-24.9-.5-11.2 25.3-5.8 36.3-2.7zM563.3 100.2c11.9-2.1 51.8 2.1 59.9-2.5 6.1-3.4 7.6-9.1 6.9-15.5-2.4-20.1-21.2-24.7-38-24.7-23.8 0-50.2 9-62.9 30.2-11.9 19.8-9.7 36.6 14.5 44.4 18.9 6.1 47.1-.2 55.1-4.3 3.6-1.9 16-7.6 16-12.1 0-5.1-7.6-6.9-11.6-6.9-10.3 0-20.8 10.6-34.5 10.6-5.9 0-15.8-3.4-15.8-10.8 0-5.6 5.8-7.6 10.4-8.4zm23.3-27.6c6.2.1 13.7 1.7 13.9 7.3.3 6.9-11.2 6.9-12.9 6.9H571c-4.5-.4-6.8-2.4-6.8-4.5.1-7 17.1-9.8 22.4-9.7zM268.5 73.3c0-7-6.3-12-13.2-14-4.7-1.3-27-4.4-48.1 0-6 1.2-25.3 8.1-25 15.8.2 4.4 7.6 4.9 10.6 4.9 15.9 0 20.2-9.4 34-9.4 2.2 0 11.2-.6 11.2 6.1 0 7.8-13.7 8.9-15.3 9.1-7.2 1-34.9 5.1-44.7 10.4-15 8-19.3 16.7-19.3 21.7 0 15.5 20.9 16.7 29.5 16.7 12.9 0 18.8-4.5 29.5-4.5 1 0 13.4 2.7 17.3 2.9 3 .1 5.7-.6 8.2-1.4 7.1-2.3 7.5-9.5 9.6-14.2 4.6-10.5 8.9-21.1 12.8-31.8 1.3-4.1 2.9-8.2 2.9-12.3zm-59.7 44.9c-2.7.6-4 .9-7.2 1-3.5.1-11-1.4-11-6.3 0-10 26.2-13.7 29.9-13.7 4.6-.2 7.5 1.1 7.5 4.1.2 8.5-18.2 14.7-19.2 14.9zM344.9 58.9c-9-.1-19.5 3.5-28.3 3.7-6.8.2-14.2-2.1-18.5-2-13.8.2-15.7 2.2-21.4 15.9-2.4 5.8-5.9 15.7-8.3 21.3-1.4 3.3-11.2 26.7-11.2 29.9 0 7 7.2 7.1 11.8 7.1 5.7 0 12.5-1.3 16.8-7.6 2-2.9 8.8-19.3 11.5-27.5 5-14.8 14.3-23.1 26-23.1 4.9 0 11.6 1.3 11.6 9.2 0 8.2-14.6 38.8-14.7 43 0 6.6 8.2 6 12 6 15.3 0 15.5-2.7 23-22.6 2.9-7.7 14.7-32.5 14.3-39.1-.7-14-18.1-14.1-24.6-14.2zM707.5 65.8c-.6-4.5-4.9-6.4-8.7-6.3-2.7.1-7.7 2.1-11.8 2.1-4.4 0-6.3-.9-12.2-1.9-7.2-1.3-13.7-1.1-18 0-6.7 1.6-11.8 8.3-13.2 13.5-2.4 8.7-6.9 17.5-10.2 26.1-3.6 9.3-9.8 25.6-10.1 28.9-.3 2.9 3 6.5 6.3 6.5 0 0 12.8.1 15.3-.1 10.3-.9 14.3-14.9 16.6-20.8 1.9-4.8 3.9-9.9 5.9-14.7 1.3-3.2 3-7.9 6.6-11.2 7.1-6.6 15.5-6.6 23.2-8.6 6.8-1.9 10.9-7.9 10.3-13.5zM79.6 116.1c-3.1-1.3-6.1-2.8-5.8-7 .1-1.4 2.2-7.6 4.5-13.9 2.3-6.3 4.8-12.6 5.7-14.1 2.6-4.3 8.6-6.3 13.9-8.4 5.3-2.1 10.1-4.1 10.1-8.4 0-3.4-3.4-4.7-6.6-6-3.2-1.3-6.3-2.6-5.6-5.9 1.2-6 1.8-10 .3-12.5s-5-3.4-11.9-3.2c-11 .4-14.9 3.3-17.3 7-2.4 3.8-3.3 8.3-8.4 12-3.1 2.2-6.6 3.2-9.5 4.6-2.9 1.4-6.1 3.6-6.1 6.7 0 3.4 2.1 4.5 4.1 5.7 2.1 1.2 4.2 2.2 4.4 4.5.1 6.8-3.2 14.7-6.6 22.5-3.4 7.8-6.9 15.4-7 21.7-.6 15.2 19.2 13.1 23.9 13.2 6.7-.1 23.8 1 24.1-12.3 0-3.6-3.1-4.9-6.2-6.2zM177.7 65.5c0-4.8-5.3-5.9-8.8-5.9-2.7 0-9.1 2-13.1 2-4.4 0-6.3-.9-12.2-1.9-7.2-1.3-13.7-1.1-18 0-6.7 1.6-11.8 8.3-13.2 13.5-2.4 8.7-6.9 17.5-10.2 26.1-3.6 9.3-9.8 25.6-10.1 28.9-.3 2.8 3 6.5 6.3 6.5h9.3c-1.8-2-3.2-4.4-3.9-7.1-1.3-4.6-.7-9.5 1.7-13.7 2.4-4.2 6.2-7.2 10.9-8.5 1.3-.4 2.8-.6 4.2-.7h.7c4.1 0 8 1.4 11.1 3.9 1.3-3.2 2.5-6.4 3.8-9.5 1.3-3.2 3-7.9 6.6-11.2 7.1-6.6 15.4-6.5 23.1-8.4 5.6-1.4 11.8-9.4 11.8-14z"/></g></svg>